<svg width="124" height="124" viewBox="0 0 124 124" fill="none" xmlns="http://www.w3.org/2000/svg">
<path fill-rule="evenodd" clip-rule="evenodd" d="M123.489 70H91.9579C88.4304 83.2435 76.3546 93 62 93C47.6454 93 35.5696 83.2435 32.0421 70H0.511368C4.43575 100.463 30.4692 124 62 124C93.5308 124 119.564 100.463 123.489 70ZM123.489 54H91.9579C88.4304 40.7565 76.3546 31 62 31C47.6454 31 35.5696 40.7565 32.0421 54H0.511368C4.43575 23.5372 30.4692 0 62 0C93.5308 0 119.564 23.5372 123.489 54ZM62.5 47C57.0782 47 52.3065 49.7838 49.5364 54C47.9329 56.4407 47 59.3614 47 62.5C47 65.2206 47.7009 67.7775 48.9321 70C51.5747 74.7705 56.6602 78 62.5 78C68.3398 78 73.4253 74.7705 76.0679 70C77.2991 67.7775 78 65.2206 78 62.5C78 59.3614 77.0671 56.4407 75.4636 54C72.6935 49.7838 67.9218 47 62.5 47Z" fill="white" fill-opacity="0.3"/>
</svg>
