<svg width="221" height="220" viewBox="0 0 221 220" fill="none" xmlns="http://www.w3.org/2000/svg">
<path fill-rule="evenodd" clip-rule="evenodd" d="M220.511 124.194H164.104C157.794 147.69 136.191 165 110.511 165C84.8317 165 63.2287 147.69 56.9182 124.194H0.511375C7.53187 178.24 54.1043 220 110.511 220C166.918 220 213.491 178.24 220.511 124.194ZM220.511 95.8064H164.104C157.794 72.31 136.191 55 110.511 55C84.8318 55 63.2287 72.31 56.9182 95.8064H0.511375C7.53188 41.7596 54.1043 0 110.511 0C166.918 0 213.491 41.7596 220.511 95.8064ZM109.601 83.4444C100.653 84.0144 92.8605 88.7936 88.2147 95.8064C85.346 100.137 83.6771 105.319 83.6771 110.887C83.6771 115.714 84.9311 120.25 87.1335 124.194C91.8611 132.657 100.959 138.387 111.406 138.387C121.853 138.387 130.951 132.657 135.678 124.194C137.881 120.25 139.135 115.714 139.135 110.887C139.135 105.319 137.466 100.137 134.597 95.8064C129.641 88.3261 121.105 83.3871 111.406 83.3871C110.8 83.3871 110.198 83.4064 109.601 83.4444Z" fill="black" fill-opacity="0.05"/>
</svg>
